<svg id="Layer_1" data-name="Layer 1" xmlns="http://www.w3.org/2000/svg" xmlns:xlink="http://www.w3.org/1999/xlink" viewBox="0 0 1115 1026"><defs><style>.cls-1{fill:url(#linear-gradient);}.cls-2{fill:#e8e4d8;}.cls-3{fill:#eed6b9;}.cls-4{fill:#fff;}.cls-5{fill:#e8c8a0;}.cls-6{fill:#9d6e54;}.cls-7{fill:#a77660;}.cls-8{fill:#f58a66;}.cls-9{fill:#f3f1f2;}.cls-10{fill:#141414;}.cls-11{fill:#d58062;}.cls-12{fill:#f5f5f5;}.cls-13{fill:#969595;}.cls-14{fill:#405660;}.cls-15{fill:#3a4d57;}.cls-16{fill:#222124;}.cls-17{fill:#040605;}.cls-18{fill:#79563b;}.cls-19{fill:#835f40;}.cls-20{fill:#25a9e0;}.cls-21{fill:#4d6671;}.cls-22{fill:#1b75bb;}.cls-23{fill:#5c777f;}</style><linearGradient id="linear-gradient" x1="-82.76" y1="143.35" x2="1197.76" y2="882.65" gradientUnits="userSpaceOnUse"><stop offset="0" stop-color="#9691ff"/><stop offset="0.72" stop-color="#ce97fe"/></linearGradient></defs><title>feature1</title><rect class="cls-1" width="1115" height="1026"/><polygon class="cls-2" points="496.29 450.22 525.99 448.34 578.33 483.7 548.19 484.06 496.29 450.22"/><path class="cls-3" d="M566.27,409.77c-11,16.23-22.25,36.57-25,38.2s-11.8,1.62-11.8,1.62l19.86,13.2,2.11-5.5s20.18-20.73,27.77-27.48S573.72,398.83,566.27,409.77Z" transform="translate(5.09 4.61)"/><path class="cls-3" d="M520.41,464.67s-1.26,3.45,1.08,4.57l2.34,1.11a3.13,3.13,0,0,0,1.68,2.47,2.07,2.07,0,0,0,2.56-.05s.33,2.14,1.93,2.18a4.06,4.06,0,0,0,2.48-.67s-.36,3.62,2.2,3.24,5-2.54,5.24-3.24-3.4-7.15-8.46-9.12-6.58-3.53-7.89-3A13.44,13.44,0,0,0,520.41,464.67Z" transform="translate(5.09 4.61)"/><path class="cls-4" d="M582.55,365.05s-9.84,29.6-13.46,36.12-7.92,13.52-7.92,13.52,2.46,9.5,9.72,13,9.08,3.48,9.08,3.48,11.08-9.95,12.78-14.08S590,383.6,590,383.6Z" transform="translate(5.09 4.61)"/><path class="cls-5" d="M565.1,758.86c-1,7.94,22.91,6,29.36,2s11.45-11.94,15.93-15.4,8.41-3.52,9-7c.12-1,.42-3.88.66-7.81.71-9.61,1.49-25.66.83-36.94-1-15.93,1.31-52.69-1.49-71.61-.42-2.68-.72-5.49-1-8.41-1.38-14.5-1.44-31.27-1.85-41.17-.54-11.94,2.32-59.32,2.32-59.32s3-54.71,3-67.6c0-4.36-3.52-6.75-8.24-7.94-9.25-2.51-23.09-.54-23.09-.54-16.41,77.58-9.79,121.31-9.43,145.72.3,21.9,6.45,35.8,9,60.15s7.46,58.65,6.45,71.13c-.66,8.35-14.21,22.19-23.28,32.7C568.8,751.94,565.46,756.23,565.1,758.86Z" transform="translate(5.09 4.61)"/><path class="cls-6" d="M586.25,436s-7,42.37-9.1,71.22-2.61,81.72,3.32,97.46,13,100.94,13,100.94,14.87,12.43,28.36,0V551.47l12.49-106.41L620,425.84Z" transform="translate(5.09 4.61)"/><path class="cls-3" d="M599.41,497.8c5,15.39,19.93,16.89,17.9,41.77s-3.46,54.18.54,72.08c.18.66.3,1.37.48,2v.06c3.87,17.18,8.59,34,11.45,66.53,3,33.84,3,68.15,2,76.56-.48,3.94-2.56,12.17-4.23,20.41-2,9.49-3.59,19-1.74,21.9,3.47,5.43,24.35,0,27.33-5s2-15.87,2-21.83c0-1.08.18-5,.54-10.86,1.55-26.62,5.73-93,4.89-108.49-1-18.91-6.44-48.75-5-70.11s9-38.31,6.44-75.6S645.65,467,644.7,447.56c-.66-12.12-18.08-11.82-31.15-9.91h-.06a136.19,136.19,0,0,0-14.08,2.92S594.46,482.34,599.41,497.8Z" transform="translate(5.09 4.61)"/><path class="cls-7" d="M597.21,445.06s-3,36.55,0,48.73,13.69,23.12,15.68,28.84.75,60.42.75,68.62,3.73,29.09,6,34.56,8.2,36.8,8.2,49,4,51.47,3.23,60.42c0,0,4.48,5.22,14.17,5.22s14.18-4.72,14.18-4.72,3.73-70.62,2.23-89.51S656.9,597,657.4,586.28s7.21-33.57,8.7-56.94-4.48-46.74-4.48-46.74L648.7,445.06s-7.46-14.42-8.46-14.42-34.81.74-34.81.74Z" transform="translate(5.09 4.61)"/><path class="cls-3" d="M680.79,376.14c-3.35-21.82-11.93-28-31.32-42.89s-41.21-22.56-52.4-5.22-16.6,40.46-16.6,44.56,6.72,13.62,6.53,19-.75,44.39-.75,44.39,5.78,14.91,32.08,16.59S647,450.35,647,450.35s3.36-20.51,5.78-32.63S683.07,390.94,680.79,376.14Z" transform="translate(5.09 4.61)"/><path class="cls-2" d="M647,450.35s-2.42,3.92-28.71,2.24S586.25,436,586.25,436s.56-39,.75-44.39-6.53-14.91-6.53-19,5.41-27.22,16.6-44.56c4-6.24,9.44-9.21,15.61-9.8-.91,1.09-11.25,13.56-11,21.17.25,8,23.37,23.62,32.57,23.62s14.3-15.49,27.12-20.43c11.21,9.31,16.86,16.84,19.43,33.55,2.28,14.8-25.54,29.46-28,41.58S647,450.35,647,450.35Z" transform="translate(5.09 4.61)"/><path class="cls-8" d="M678.18,358.46c-4.48-7.83-28.35-27.6-28.35-27.6a78.76,78.76,0,0,0-10.07,6.34c-5.59,4.1-12.32,12.06-27.22,6-8.21-3.36,0-19.27,0-19.27a47.53,47.53,0,0,0-10.44,1.53l13.54,29,1.81,143.85c8.28-5.76,15-14.84,21.57-17.1,9.69-3.36,25.36,10.07,25.36,10.07-2.61-16.79-10.82-34.32-13.43-41.4s0-22.75,1.87-32.11,8.95-6.68,17.9-18.24S682.65,366.29,678.18,358.46Z" transform="translate(5.09 4.61)"/><path class="cls-4" d="M606,602.83l11.42-104.57-1.81-143.85-13.54-29c-3.36.95-6.63,2.46-8.21,4.93-4,6.22-13.8,29.59-14.92,37.79s6,20.89,6,42.15c0,20.19-7.06,61.56-7.13,69.17a7.59,7.59,0,0,0,0,.94l-4.66,121.53Z" transform="translate(5.09 4.61)"/><path class="cls-9" d="M595.23,425.3c-.66.05-2.59-14.82-1.93-27.36.06-1.14.21-4,.48-4,.42,0,.87,6.79,1.13,10.78.21,3.16.42,6.51.48,11.1C595.48,422.12,595.52,425.27,595.23,425.3Z" transform="translate(5.09 4.61)"/><path class="cls-9" d="M606.66,423.2c.66.06,8.79-14.33,8.13-26.87-.06-1.14-.21-4-.48-4s-.87,6.79-1.13,10.78c-.2,3.16-1.89,5.93-3.3,10.3C608,419.34,606.37,423.18,606.66,423.2Z" transform="translate(5.09 4.61)"/><path class="cls-10" d="M642.78,402.83c.86-1,3.7-28.89,1.3-51.09-.19-1.67-1.87-16.4-6.89-21.76-2.65-2.82-3.6-.23-9.26-.5-8.9-.43-11.11-7.05-15.93-2.53-3.25,3-5,8.62-5.6,10.62-1.32,4.33-3.43,13.72-1.94,18.72,1,3.53,3,4.47,5.42,7.37,4,4.83,7.93,22.63,5.35,32.09-.51,1.86-1.77,1.53-2.3,1.06-.93-.84.89-6.57.14-14.72-1.06-11.6-6.57-21-10.76-20.74-4.51.28-5.4,16.34-5.6,18.21-1.39,12.82.13,19.12-1.64,21.44-.86,1.13-1.48,3.64-2.23,1.83-2.28-5.43-.44-18.77,1.5-26.81,2.4-9.92,4.47-9.74,6.46-20.24,1.27-6.69.61-7.69,1.72-14.16.29-1.64,3-16.92,8.83-22.77,2.78-2.79,3.74-.88,14.43,1.52,9.7,2.18,10.87,1,13.34,4.56,4.42,6.27,6,17.43,7.32,27.31,3.41,24.7,2.13,53.77-.86,55.14C644.33,408,642.43,403.24,642.78,402.83Z" transform="translate(5.09 4.61)"/><path class="cls-5" d="M612.36,316.47s.19,15.85.74,20.51,13.43,4.66,19,4.66,9.51-3.54,9.7-8.95-.12-30.33-.12-30.33-7.34,1.24-18.15,6.46S612.36,316.47,612.36,316.47Z" transform="translate(5.09 4.61)"/><path class="cls-3" d="M599.43,263.57c-1.74,5.47,0,13.18-.5,15.66s-2,5-2,9-.25,25.11,4,27.84,27.6-1,32.32-4.72a50.38,50.38,0,0,0,8.46-8.95,10.16,10.16,0,0,0,8.45-3.73c3.23-4.23,11.44-21.14,6-39.53s-35.06-19.15-45.5-11.69S599.43,263.57,599.43,263.57Z" transform="translate(5.09 4.61)"/><path class="cls-11" d="M565.1,758.86c-1,7.94,22.91,6,29.36,2s11.45-11.94,15.93-15.4,8.41-3.52,9-7c.12-1,.42-3.88.66-7.81-8.77,6.5-30.2,21.6-38.25,20.52-5-.71-7.58-2.33-8.6-4.35C568.8,751.94,565.46,756.23,565.1,758.86Z" transform="translate(5.09 4.61)"/><path class="cls-11" d="M625.78,799.14c3.47,5.43,24.35,0,27.33-5s2-15.87,2-21.83c0-1.08.18-5,.54-10.86-.6,2.38-1.13,5-1.55,7.57-1.73,11.22-2.75,15.7-16.89,17.43-6.2.77-8.77-3.82-9.72-9.19C625.49,786.73,623.93,796.21,625.78,799.14Z" transform="translate(5.09 4.61)"/><polygon class="cls-4" points="658.71 337.12 625.65 359.01 622.52 607.44 688.22 607.5 686.41 525.23 685.52 363.48 658.71 337.12"/><path class="cls-3" d="M683,391.12c-2-18.65-3.48-32.32-13.18-34.06s-15.66,10.44-13.18,30.83,6.72,47,6.72,47-5.72,67.13-6.47,69.61-5.47,4.23-7.7,7.46-5.47,16.41-3.24,17.65,4.73-6.71,6.47-5.71.25,9-1,12.43-4.47,7.21-2.48,8.45,13.42-2.73,16.66-8.45,5-20.89,4.72-25.11,13.43-67.38,14.17-72.11S683,391.12,683,391.12Z" transform="translate(5.09 4.61)"/><path class="cls-4" d="M682.45,369.49c-2.37-11.49-7.46-17.9-19.14-15.92s-13.93,21.64-10.69,36.8,8.45,43.76,8.45,46-2.24,27.84-2.24,27.84a26.33,26.33,0,0,0,21.63,5.23s6-24.87,6-30.83S686.93,391.12,682.45,369.49Z" transform="translate(5.09 4.61)"/><path class="cls-11" d="M612.84,327.72s-7,2-7.71,8.7a15.48,15.48,0,0,1,.25-9.2c1.74-4.48,7.3-9,7.3-9Z" transform="translate(5.09 4.61)"/><ellipse class="cls-12" cx="648.32" cy="410.75" rx="10.03" ry="10.64"/><ellipse class="cls-10" cx="648.25" cy="411.3" rx="6.64" ry="6.89"/><ellipse class="cls-13" cx="648.1" cy="411.21" rx="5.23" ry="5.26"/><ellipse cx="600.84" cy="429.81" rx="3.04" ry="3.33"/><ellipse cx="612.42" cy="428.43" rx="3.04" ry="3.33"/><path class="cls-10" d="M645.77,347.52c-.73.11-1.48.2-2.24.28.32,2,.5,3.47.55,3.94,2.4,22.2-.44,50.08-1.3,51.09-.35.41,1.55,5.12,2.8,4.55,3-1.37,4.27-30.44.86-55.14C646.23,350.69,646,349.11,645.77,347.52Z" transform="translate(5.09 4.61)"/><path class="cls-14" d="M602.77,256.24s7.45,23.49,35.8,35.8c0,0,3.54-12.31,9.14-8.39s5.4,9.13,3.35,12.31-4.56,7.39-9.36,6.4c1.5.31-1.93,20.14-2.33,21.65-2.1,7.85-6.36,13.92-9.33,21.16-4.32,10.51-3.22,23.92-3.22,35.1-.61-5,6-16.18,9.84-19.21.2,2.55.11,5.19.09,7.78,0-6.18,6.39-15.18,9.71-20,4.48-6.54,9.12-11.75,16.95-7.56.87-24.79,4.63-52.54-2.59-76.7-6.46-21.64-21.88-24.62-33.56-21.39S602.77,256.24,602.77,256.24Z" transform="translate(5.09 4.61)"/><path class="cls-15" d="M637.82,242.62c-9-5-19-3.17-26.29.19s-12.68,9.88-13.61,14.36.65,14.73.65,14.73,1.21-9.51,2.15-12.49,2-3.17,2-3.17,10.43-7.47,16.87-10.26C631.48,240.85,637.82,242.62,637.82,242.62Z" transform="translate(5.09 4.61)"/><path class="cls-15" d="M597.92,257.17c-2.72,20-5.15,38.26-2.91,56.91S598.37,351,598.37,351l14.54-20.7-.55-13.83s-9.26.89-11.44-.44-4-16.12-3.92-20.35-.5-9.32.74-12.06a16.12,16.12,0,0,0,1.37-5.35l-.37-8.82Z" transform="translate(5.09 4.61)"/><path class="cls-16" d="M760.44,202.53a22.73,22.73,0,0,0-12-20L449.72,14.9a5.92,5.92,0,0,0-3.4-.7c-33.81,3.24-18.29,1.6-42,3.71a23,23,0,0,1,6.78,2.32L720,185.15a22.72,22.72,0,0,1,12,20l2.48,706.63a22.45,22.45,0,0,1-10.75,19.36c15.7-4.85,32.13-17.4,37.47-21a3.86,3.86,0,0,0,1.69-3.24Z" transform="translate(5.09 4.61)"/><path class="cls-17" d="M712.52,932.48l-299-161.77a3.84,3.84,0,0,1-.54-.35c-19.55-14.7-29.36-26.08-29.33-34.33l7-428.35.91-248.78a2.11,2.11,0,0,1,3.11-1.82l.06,0,.57-34.86a3.93,3.93,0,0,1,3.58-3.85l5.45-.49A22.74,22.74,0,0,0,377.64,40.2l-2.48,697.17a22.73,22.73,0,0,0,11.69,20L700.73,931.7a22.52,22.52,0,0,0,23-.59,42.26,42.26,0,0,1-9,1.87A4.08,4.08,0,0,1,712.52,932.48Z" transform="translate(5.09 4.61)"/><path class="cls-17" d="M734.5,911.75,732,205.12a22.72,22.72,0,0,0-12-20L411.08,20.23a23,23,0,0,0-6.78-2.32l-5.45.49a3.93,3.93,0,0,0-3.58,3.85l-.57,34.86,318.76,166a2.06,2.06,0,0,1,1.12,1.82L717,895.49a2.11,2.11,0,0,1-3.14,1.81L390.2,721.89a2,2,0,0,1-1.08-1.81l1.5-412.4-7,428.35c0,8.25,9.78,19.63,29.33,34.33a3.84,3.84,0,0,0,.54.35l299,161.77a4.08,4.08,0,0,0,2.24.5,42.26,42.26,0,0,0,9-1.87A22.45,22.45,0,0,0,734.5,911.75Z" transform="translate(5.09 4.61)"/><path class="cls-15" d="M411.22,867.64s31.93-9.13,38.78-5.71,1.6,16.67-13.24,25.11S413.9,900.74,406,902.79s-20.18,2.29-22-5.47-.91-17.13,1.14-20.55S411.22,867.64,411.22,867.64Z" transform="translate(5.09 4.61)"/><path class="cls-5" d="M385.24,624.68c-1,16.9,4.1,60.94,3.08,83.47s-4.1,24.58-5.64,57.35,2.05,112.14,6.66,116.75,26.13,6.46,26.5-8.7c.38-15.75,4.74-111.63,7.3-120.85s8.19-25.61,8.19-48.14,4.1-54.79,4.1-54.79-8.71-24.58-27.14-26.63S385.24,624.68,385.24,624.68Z" transform="translate(5.09 4.61)"/><path class="cls-15" d="M456.69,895.39s35.82-10.24,43.5-6.4,1.79,18.69-14.85,28.16-25.64,15.37-34.46,17.67-22.64,2.56-24.69-6.14-1-19.21,1.28-23S456.69,895.39,456.69,895.39Z" transform="translate(5.09 4.61)"/><path class="cls-3" d="M483.56,646.7c-1.54,35.84-8.7,104.46-10.75,118.8s-10.76,45.06-12.8,80.39-1.54,55.82-6.15,62.48-15.87,7.17-22.53,2.56-9.73-84.49-9.73-112.15,6.66-42.5,6.15-62-3.08-87.56-3.08-87.56S440,636,455.4,634.92,483.56,646.7,483.56,646.7Z" transform="translate(5.09 4.61)"/><path class="cls-18" d="M384,631c-.57,11.71.39,71.24,0,87s-2.68,43-3.45,76.42a49.44,49.44,0,0,0,24.19,8.45c13.83.77,23.05-2.3,23.05-2.3s10-81.42,8.83-104.47-1.15-46.34-1.15-46.34-4.23-16.64-24.2-18.56S384,631,384,631Z" transform="translate(5.09 4.61)"/><path class="cls-19" d="M487.4,647.72c2.05,51.47-3.58,103.7-4,110.23s-9.6,56.45-10,63.75-30.73,13.44-53,1.15c0,0-2.31-34.18.38-55.69s2.69-71.43,1.15-80.26A375,375,0,0,1,418.14,647c-.38-11.91,24.2-20,42.25-17.29S487.4,647.72,487.4,647.72Z" transform="translate(5.09 4.61)"/><path class="cls-20" d="M495.87,500.41c3.66-22.24-8.38-34.51-35.34-50.31-11.13-6.53-52.61-35-73-9.6s1.16,82.19,0,114.45-6.14,74.5-6.14,74.5,10.37,21.13,48,24.58,61.44-6.91,61.44-6.91S485.11,565.7,495.87,500.41Z" transform="translate(5.09 4.61)"/><path class="cls-15" d="M490,563s-11.89,13.82-39,16.89V595a168.69,168.69,0,0,0,38.4-9.22,54.89,54.89,0,0,0,2.75-13.56C492.78,564.26,490,563,490,563Z" transform="translate(5.09 4.61)"/><g id="_Group_" data-name="&lt;Group&gt;"><path class="cls-21" d="M444.27,477.94a35,35,0,0,1,2.34,8.18c-15.36-13.4-23.84,43.68-32.32,45.65s-41.05-9.65-49.41-27c-6.26-23.37,3.94-40.25,9.1-49.47C379.69,445.13,437,462.58,444.27,477.94Z" transform="translate(5.09 4.61)"/><path class="cls-15" d="M450.91,585.48c.25,18.06,1,44.61-18.92,45s-62.25-18.81-64.53-27.29c-1.53-5.59-4.91-56.65-2.58-98.37,8.36,17.32,41,28.88,49.41,27s17-59,32.32-45.65C451.34,510.76,450.67,569.68,450.91,585.48Z" transform="translate(5.09 4.61)"/></g><path class="cls-15" d="M447.21,489.65s7.55-20.89,18.34-22.81a43.43,43.43,0,0,1,20.22,1.5s1.12-3.23-3.49-6.88-15.73-7.73-15.73-7.73S450.21,450,433.41,467.9c0,0,6.91,3.93,9.66,8.09C446.11,480.58,447.21,489.65,447.21,489.65Z" transform="translate(5.09 4.61)"/><path class="cls-15" d="M403.22,455.5s2.44-20.92,11.08-25.34a9.82,9.82,0,0,0-5.54-1.73c-3.29,0-11.71,4.47-11.71,4.47s-7.7,4.78-11.55,19.45C385.5,452.35,399.71,454.5,403.22,455.5Z" transform="translate(5.09 4.61)"/><path class="cls-3" d="M418.78,426.25s-.25,9.48,0,11.53,10.25,8.7,20.23,9.73,15.22-1.22,15.22-1.22V433.42s15,.65,17-3.26,5.89-23.36,4.35-27.46-3.07-7.68-3.07-10,1.54-9.73,1-12.8S469,368.65,469,368.65s6.82-8.45-12-14.09-43.6.52-46.67,6.15-2.8,9.73-2.8,9.73-8.92,11-6.42,19.71,14.34,30.47,14.34,30.47Z" transform="translate(5.09 4.61)"/><path class="cls-19" d="M457,354.56c-18.77-5.63-43.6.52-46.67,6.15s-2.8,9.73-2.8,9.73-8.92,11-6.42,19.71,14.34,30.47,14.34,30.47l3.32,5.63s20.74-3.32,23.05-6.14,6.65-14.59,9.16-13.57,2.87,9.47,2.87,9.47H457s.47-10,0-12.29,3.76-6.4,4.28-9.73-1.54-12.54-1.64-14.59S469,368.65,469,368.65,475.79,360.2,457,354.56Z" transform="translate(5.09 4.61)"/><path class="cls-3" d="M537.31,654.73c-.74-2.46-11.63-21.22-11.63-21.22L503.51,566.8A31.3,31.3,0,0,0,497,556.29c1.46-24.11-4.77-66.64-4.77-66.64s-22.94-15.84-30.3,11.37c0,0,2.6,42.33,3.39,60.25l0,.06.11,1.95c.09,2.22.15,4,.15,5a6,6,0,0,0,.23,1.62v.08c0,.08.09.18.12.26a6.42,6.42,0,0,0,.57,1.18l.11.22v.06c9,18.25,42.77,68.09,43.2,70.42,0,0-1.66,8.48,1.17,11.55s5.9,3.57,6.39,5.9.24,11.25.8,13.58S528.34,684.59,532,682c0,0,3.07-8.42,3.81-10.75S538.11,657.19,537.31,654.73Z" transform="translate(5.09 4.61)"/><path class="cls-22" d="M498.64,526.12c-.19-15.93-.85-37.86-3-45.05-3.47-11.72-28.1-20.48-36,6.43-4,13.77-3.07,33.83,0,51.24C459.82,538.77,490.42,545.09,498.64,526.12Z" transform="translate(5.09 4.61)"/><path class="cls-23" d="M379.1,514.07s9.47,3.59,10.75,5.64,1.54,28.67-.51,28.93-11.27-3.07-12.8-5.12S375.77,515.87,379.1,514.07Z" transform="translate(5.09 4.61)"/></svg>