<svg xmlns="http://www.w3.org/2000/svg" xmlns:xlink="http://www.w3.org/1999/xlink" viewBox="0 0 1080 1011.67"><defs><style>.cls-1{isolation:isolate;}.cls-2{fill:url(#linear-gradient);}.cls-3{fill:#66abac;}.cls-4{fill:#553430;}.cls-5{fill:#202c2d;}.cls-6{fill:#182223;}.cls-7{fill:#8a4433;}.cls-8{fill:#ef947f;}.cls-9{fill:#eaeaea;}.cls-10{fill:#ffaf99;}.cls-11,.cls-15{fill:#8e8e8e;}.cls-12{fill:#683019;}.cls-13{fill:#ee484b;}.cls-14{fill:#72382d;}.cls-15,.cls-24{opacity:0.5;mix-blend-mode:screen;}.cls-16{fill:#9f745d;}.cls-17,.cls-24{fill:#3e1508;}.cls-18{fill:#8e6654;}.cls-19{fill:#ffc8bb;}.cls-20{fill:#588c8c;}.cls-21{fill:#81ccc8;}.cls-22{fill:#70bab8;}.cls-23{fill:#ffb7a9;}.cls-25{fill:#d03e40;}</style><linearGradient id="linear-gradient" x1="-86.35" y1="145.39" x2="1167.35" y2="869.21" gradientUnits="userSpaceOnUse"><stop offset="0" stop-color="#9691ff"/><stop offset="0.72" stop-color="#ce97fe"/></linearGradient></defs><title>KnowYouFamilyHealth</title><g class="cls-1"><g id="Layer_1" data-name="Layer 1"><rect class="cls-2" x="-2" y="-0.7" width="1085" height="1016"/><path class="cls-3" d="M770.13,756.46l.57-.52c.28-3.12.57-6.26.85-9.41-.19.27-.44.5-.64.77C770.64,750.34,770.38,753.4,770.13,756.46Z"/><path class="cls-4" d="M575,891.94s36.79,43,31.74,45.75-40.43,2.41-49.15,2.87-19.37.36-19.76-5c-.1-1.45,3.68-46.35,6.89-45.89S575,891.94,575,891.94Z"/><path class="cls-4" d="M507.86,891.17s9.7,42.4,7.16,47c-3.11,5.59-81.63,6-82.58-1.75-1.09-8.89,36.88-45.22,36.88-45.22S500.52,897.14,507.86,891.17Z"/><path class="cls-5" d="M593.26,900s-36.6,7-56.43.86l-13-268.63a7.27,7.27,0,0,0-6.85-6.9l-1.68-.09a7.25,7.25,0,0,0-7.67,7.44c1.24,44.87,7.22,266.25,4.47,270.34a94.05,94.05,0,0,1-35,2.65,65.12,65.12,0,0,1-19.24-5.22S432.62,621.7,438.71,565.19c0,0,97.78,13.75,141.29-3.81,0,0,1.13,12.21,2.69,32.42C588,659.8,598.53,811.07,593.26,900Z"/><path class="cls-6" d="M582.69,593.8c-16.69,3.33-30.29-1.53-64.91-.37-44.26,1.53-42.73,4.59-51.1,23.64-7.77,17.67,8,253.73,10.35,288.57a65.12,65.12,0,0,1-19.24-5.22S432.62,621.7,438.71,565.19c0,0,97.78,13.75,141.29-3.81C580,561.38,581.13,573.59,582.69,593.8Z"/><path class="cls-7" d="M692,457.59l-4.85,44.72s-63.87,6.12-86.73-20.91c-13.49-15.93-17.89-37.79-22.11-57.16,3.25,30.28,4.11,68.07,6.5,91.12.89,8.46,1.56,15,1.9,18.65,1.27,13.9,3.51,20.82,3.25,25.61-.15,2.91-1.2,5-4,7.47-1.9,1.72-11.43,3.86-24.65,5.55-19.46,2.45-46.88,3.87-69.88,1.19-9.27-1.08-46.66,1.59-53.68-1,.05.23-11.35-112.52,3.55-201.22-36.05,74.9-18.06,190.77-20.32,192.34,1.86,16.12-17.09,9.77-28.71,4.76-2.35.88-40.09-147.13,40.14-249.55,8.82-11.22,30-19.33,50.05-23.43,10.8-2.18,21.29-3.25,29.43-3a182.69,182.69,0,0,1,30.33,3.91h0c14.49,3.14,37.66,10.3,46.14,20.52,17.81,21.64,16.2,115.05,48.43,128.72S692,457.59,692,457.59Z"/><path class="cls-8" d="M447.91,220.73c-4-2.82-12.37-6.55-17-4.76s-6.3,7.5-5.71,12.36A23.9,23.9,0,0,0,435.9,245c5.65,3.76,7.84,4.67,14.62,4.24Z"/><path class="cls-9" d="M562.59,562.65c-.58,3.45-.79,6.81-1.27,10-1.49.19-3,.38-4.63.53-1.12.16-2.28.27-3.44.39-.15,0-.3,0-.45,0-.71.07-1.42.15-2.16.19a341.63,341.63,0,0,1-38.81,1.41c-2.28-.07-4.56-.15-6.84-.26s-4.59-.27-6.87-.46a2.28,2.28,0,0,1-.52,0c-2.06-.16-4.11-.39-6.13-.61h0c-.83-5.75-.3-14.53-2.25-25-13.1-71-15.42-233.15-6.72-253.08v-.31c10.8-2.22,21.29-3.29,29.43-3a179.76,179.76,0,0,1,30.33,3.94.94.94,0,0,0,0,.31C557.4,311.83,576.91,476.79,562.59,562.65Z"/><path class="cls-8" d="M499.49,293.55s-4.88,28.16,5.34,32.54,17.09,1.2,19.28-3.18,3.45-25.36,1.26-29S499.49,293.55,499.49,293.55Z"/><path class="cls-10" d="M517.06,297.08c-4.22,0-9.18.38-16.88,0-29.88-1.49-53.11-17.93-54.39-54.39-.4-11.33,0-45.33,0-45.33a45,45,0,0,1,44.9-44.9h35.86a45,45,0,0,1,44.9,44.9s.26,32.24.9,43C574.66,279.09,547,297.08,517.06,297.08Z"/><path class="cls-8" d="M561.1,278.91c-10.42,12.37-26.85,18.32-44,18.32-4.22,0-9.19.37-16.88,0-29.89-1.5-53.54-18.44-54.81-54.93-.41-11.37.42-44.9.42-44.9A45,45,0,0,1,466,159.93c-6.61,7.85-12.82,17-12.82,28,0,0-.14,34.27-.93,45.58-2.51,36.46,26.72,56.45,56.6,58,7.69.37,12.66,0,16.88,0C538.29,291.43,551.39,285.49,561.1,278.91Z"/><path class="cls-11" d="M516.37,120.31c-50.23-1.14-62.45,16.74-67.88,32.58-11.34-3.55-42.12,38.33-2,74,0,0,5.51-29.35,21.55-49.59,0,0,79.44-19.91,103.41,23.14l.13,23.94C582.56,224.21,610.11,122.43,516.37,120.31Z"/><path class="cls-12" d="M486.06,225.91h0a5.57,5.57,0,0,1-5.55-5.56v-3.92a5.57,5.57,0,0,1,5.55-5.56h0a5.57,5.57,0,0,1,5.56,5.56v3.92A5.57,5.57,0,0,1,486.06,225.91Z"/><path class="cls-12" d="M544.19,227.23h0a5.57,5.57,0,0,1-5.56-5.56v-3.92a5.57,5.57,0,0,1,5.56-5.56h0a5.57,5.57,0,0,1,5.56,5.56v3.92A5.57,5.57,0,0,1,544.19,227.23Z"/><path class="cls-13" d="M533.61,258.57a18.18,18.18,0,0,1-36.36,0Z"/><path class="cls-14" d="M588.1,437.06c-5.64-19.48-2.27-42.16-11.23-60.38-.15-.27-.53-.12-.57.15-1.19,20.41-.11,42.7,5.34,62.07C582.83,443.15,589.33,441.31,588.1,437.06Zm1.83,122.56c-.15,2.91-1.2,5-4,7.47-1.9,1.72-11.43,3.86-24.65,5.55q.72-4.77,1.27-10c5.9-.16,10.64-.27,13.67.15C580.85,562,585.41,560.88,589.93,559.62ZM437.76,572.81c-4.67-5.21-6.56-11.67-8.47-18.41-9.63-34.35-8.62-106,3.37-153.24,2.54-9.92,9.5-35.76,9.61-30.06S436.91,492.45,448,535.18c3.25,12.48,42.57,32.9,43.4,38.65C482.17,572.75,443.09,573.75,437.76,572.81Z"/><path class="cls-15" d="M481.76,165.21c-9.29-1.94-19.58-11.59-20.83-20a1.87,1.87,0,0,1,2.75-1.67c4,2.07,7.4,5.37,10.74,8.19,3.59,3,7.45,5.78,10.15,9.51A2.58,2.58,0,0,1,481.76,165.21Zm15-3.69a118.73,118.73,0,0,1-26-22.62c-.47-.55-1.56-.12-1.21.55a62.11,62.11,0,0,0,24.23,25.21C496.28,166.15,499.3,163.18,496.74,161.52Zm17.52-4.2c-2.72-3.27-7.15-5.65-10.6-8.34-3.83-3-7.84-5.75-11.68-8.71-.12-.1-.29,0-.2.16a92.9,92.9,0,0,0,9,10.44c3.25,3.13,6.71,7.14,11,9.13C513.61,160.88,515.51,158.82,514.26,157.32Zm42.57,13.06a30.68,30.68,0,0,0-1.28-7.58,2.2,2.2,0,0,0,1.77-3.06,36.7,36.7,0,0,0-3.68-8.05,35.88,35.88,0,0,0-6-6.46c-.7-.64-1.92.15-1.53.93.3.58.58,1.19.87,1.79a51.86,51.86,0,0,0-10.47-8.81c-.86-.54-2.18.3-1.4,1.13,1.28,1.38,2.45,2.81,3.57,4.27a3.28,3.28,0,0,0-1.11.35c-.72.39-1.13.6-1.39.72a61,61,0,0,0-12.36-9.76c-.72-.43-1.9.25-1.2,1a48.42,48.42,0,0,1,8.2,11.46c0,.08,0,.16.05.24.2.26.35.55.53.82,1.63,3.18,3,6.45,4.43,9.73a55.7,55.7,0,0,0-6-6.8,142.35,142.35,0,0,0-13-11.33c-.48-.38-1.18.18-.8.64,3.35,4.14,6.4,8.4,9.37,12.74a202.34,202.34,0,0,0-17.52-16.42c-.59-.5-1.47.23-1,.81,6.78,8.26,13.14,16.8,20.32,24.81a2.92,2.92,0,0,0,4.44-.23,14.11,14.11,0,0,0,3.2,2.78c1.31.79,3.14.34,3.38-1a35.48,35.48,0,0,0,2.21,4.4l.1.11c.73,1.43,1.5,2.85,2.35,4.25,1.88,3.08,7.44,2.64,7-1.27a40.23,40.23,0,0,0-2.62-10.16c.17,0,.35-.05.52-.1.28.35.57.7.85,1.06.86,2.43,1.64,4.9,2.32,7.4C551.89,174,556.94,173.78,556.83,170.38Zm14-17.83a29.08,29.08,0,0,0-5-12.2c-3.21-4.75-9.94-11.27-16.54-11.43a.59.59,0,0,0-.48,1,15.8,15.8,0,0,0,2.94,3.24c-.5-.29-1-.58-1.52-.85a1.25,1.25,0,0,0-1.45,2,47.67,47.67,0,0,1,9.53,11.38,55.07,55.07,0,0,0-14.76-12.61c-1.21-.71-2.46.54-1.41,1.48,10.69,9.55,15.59,20.56,19.22,33.14.88,3,5.76,1.7,5.64-1,0-.53-.08-1.05-.13-1.57,1.58,2.91,6.45,1.3,6.43-1.73A26.66,26.66,0,0,0,570.88,152.55Z"/><path class="cls-8" d="M492.43,192.81l44.87-1.05A139,139,0,0,0,492.43,192.81Z"/><path class="cls-8" d="M490.9,200l44.91-2.9A165.87,165.87,0,0,0,490.9,200Z"/><path class="cls-8" d="M477.23,263l22.13-20.65a70,70,0,0,0-15.45,11.91A52,52,0,0,0,477.23,263Z"/><path class="cls-8" d="M539.26,245.37c-.83-1-1.89-2-3.14-1.83l14.38,19.75C548.81,256.37,544,250.73,539.26,245.37Z"/><path class="cls-10" d="M627,648.62c1.37,45.91,8.22,189.8,12.94,248l26.27.42s4-103.21,7.39-232.5C655.34,660.82,639.47,650.13,627,648.62Z"/><path class="cls-10" d="M728.73,656.36c1.36,47.08-5.49,177.95-9.51,244.44L690,899.25s-1-108.11-4.39-236.7C703.85,658.68,716.29,657.91,728.73,656.36Z"/><path class="cls-11" d="M726.58,164.6s-39.4-36.09-90.46,3.37c-28.61,22.11-51,83.94-7.26,129.1,34.33,35.47,84.3,32.82,116.51,7.54C792.77,267.39,767.86,177.33,726.58,164.6Z"/><path class="cls-4" d="M720,893.69s28.7,36.92,24.4,39.27-34.41,2-41.83,2.44-16.49.31-16.82-4.28c-.09-1.23,3.43-41.74,4.57-39.23C692.6,897,719.5,898.84,720,893.69Z"/><path class="cls-4" d="M640.21,894s-31.32,36.6-27,39,34.42,2,41.84,2.44,16.49.31,16.81-4.28c.09-1.23-3.52-40.53-5.86-39.06C654.78,899.09,640.21,894,640.21,894Z"/><path class="cls-16" d="M766.79,564.77c2.68,34.27,5.7,114.64,5.27,138.27,0,1.22,0,2.27-.08,3.18,0,.66-.09,1.23-.13,1.66A138.33,138.33,0,0,1,750.36,717a5.87,5.87,0,0,1-.89.31c-1.4.48-2.81.92-4.34,1.4l-.94.26c-29.05,8.85-78.54,16.65-137-4.06-.43-.13-.81-.26-1.24-.43-6-2.14-12-4.58-18.21-7.37-2.76-1.22-2.47-31.14-.42-67.16a2.32,2.32,0,0,1,0-.52c1.66-29.82,4.51-63.75,7.74-89.08.26-2.05.51-4,.77-5.93,6.55-47.67,14-100.25,15.1-131.95-2.51,7.76-3.23,11.94-13.1,21.76-.17-2.49-.38-5.72-.64-9.38-1.49-21.32-3.83-58.3-3.83-58.3s30.17-62,107-51.32c21.87,3,37.06,14.13,47.31,29.47,25.91,38.59,30.55,153.62,18.51,213.15-.34,1.74.08,3,.38,5.58A9.9,9.9,0,0,0,766.79,564.77Z"/><path class="cls-8" d="M667.65,313.18s-6.53,26.89,5.11,31.41,17.88-.38,20.37-4.9,2.08-21.87-.41-25.64S667.65,313.18,667.65,313.18Z"/><path class="cls-10" d="M746.64,254.05c3.68-2.57,8.2-5.26,12.39-3.63s5.74,6.84,5.21,11.26a21.84,21.84,0,0,1-9.72,15.16,28.89,28.89,0,0,1-17.71,4.4Z"/><path class="cls-10" d="M676,317.65c44.54,4.63,70.48-14.43,73.53-50.63.94-11.24,2.2-26,2.2-26-30.16,2.19-63.36-34.44-58.47-48.66,0,0-8.33,39-67.65,49.49,0,0-.67,6-1.83,16.65C619.58,297,646.37,314.57,676,317.65Z"/><path class="cls-8" d="M736.15,300.73c-12.3,13.61-32.72,19.78-60.16,16.93-29.62-3.1-56.42-20.72-52.21-59.14,1.15-10.63,1.83-16.68,1.83-16.68,1.7-.21,3.36-.46,5-.72-.34,2.85-.81,7-1.36,12.3-4.21,38.42,21.37,58,51,61.05C704,316.93,723.64,310.73,736.15,300.73Z"/><path class="cls-17" d="M651.22,251.09h0a5.77,5.77,0,0,1-5.51-6l.17-4.06a5.78,5.78,0,0,1,6-5.51h0a5.78,5.78,0,0,1,5.51,6l-.18,4.06A5.78,5.78,0,0,1,651.22,251.09Z"/><path class="cls-17" d="M711.35,255h0a5.78,5.78,0,0,1-5.51-6L706,245a5.76,5.76,0,0,1,6-5.51h0a5.78,5.78,0,0,1,5.51,6l-.18,4.07A5.78,5.78,0,0,1,711.35,255Z"/><path class="cls-13" d="M696.1,282a18.84,18.84,0,1,1-37.61-2.33Z"/><path class="cls-18" d="M772.06,703c0,1.22,0,2.31-.08,3.18s0,1.4-.09,1.92c0,0-7.74,4.32-21.53,8.85a5.87,5.87,0,0,1-.89.31c-1.4.48-2.81.92-4.34,1.4l-.94.26c-29,8.54-78.32,16.09-137-4.06-.43-.13-.81-.26-1.24-.43-6-2.05-12-4.41-18.17-7.11-3.65-1.62-3.1-29.26-.46-67.42a2.32,2.32,0,0,1,0-.52c1.79-26.42,4.64-57.82,7.74-89.08.26-2.05.51-4,.77-5.93,6.55-47.67,14-100.25,15.1-131.95-2.51,7.76-3.23,11.94-13.1,21.76-.17-2.49-.38-5.72-.64-9.38,2-2.83,4.55-5.36,6.68-8.2s3.66-7,6.68-9c4.08-2.66,2.64,24.9,2,38.68-.77,16.57,1.27,52.76-3,71.25-5.75,25.12-6.55,51-7.7,76.61-.94,21.41-5.62,52,3.49,72.26,17,37.76,114.06,29.21,148.78-12.87,8.17-9.94,8-35.32,8.09-46.83,0-6.71-5.49,7.72-20.55,9.2-18.13,1.79-16.55-9.37-13.66-19-9.15,1.57-12.3,3.27,1.15-39.76,5.91-18.89,6.64-49.67,5.57-78.23a1.23,1.23,0,0,1-.25-.7c-.6-10.55-7.19-21.28-4.81-48.36.76-8.46-2.51-16-1.32-20.71a.33.33,0,0,1,.6-.09c3,4,4.38,9.64,5.27,14.57,7.15,40,2.34,130.51-.13,135.61-2.89,5.89,23.87,1.92,32.55,4.1a9.9,9.9,0,0,0,.09,1.35C769.47,599,772.49,679.41,772.06,703Z"/><path class="cls-10" d="M735.07,563.22s13.91,5.56,31.16-1.12c0,0,6.12,30-11.13,42.84s-25.59,11.13-24.48,5.56,5.57-12.79,5.57-16.13-2.79-8.34-8.35-.56S728.4,574.9,735.07,563.22Z"/><path class="cls-15" d="M670.1,203.32c-5.43,5.11-11.6,8.68-18.06,12.21a1.79,1.79,0,0,1-2.14-2.81c.9-1,1.68-2.08,2.55-3.15-1.69.73-3.38,1.45-5.14,2.13-2.84,1-4.37-2.42-3.17-4.64-2.14,1.28-4.28,2.56-6.5,3.71-3,1.57-5.64-2-3.79-4.56-2.47,2.22-4.81,4.43-7,6.43a4.12,4.12,0,0,1-6.87-1.83l-2,2c-3.66,3.87-8.6-.81-7-5.06a1.11,1.11,0,0,1-.25-.51c6.92-16.72,16.75-30.93,30-40.47,4.16,4.34,7.49,9.88,5.93,11.75-.83,1-1.69,2-2.56,3a4.57,4.57,0,0,1,2.6,7.57c-1,1.24-2.06,2.47-3.09,3.75.78-.34,1.56-.64,2.43-.94,2.39-.89,3.41,2.25,2.18,3.87-.45.6-.82,1.19-1.28,1.79l7.2-4.26c2.64-1.53,6.18,1.66,4.33,4.47-1,1.58-2.06,3-3.13,4.51,1.27-.51,2.59-1,3.87-1.49,2.22-.89,4.11,2.6,2.34,4.17-.62.51-1.15,1.07-1.69,1.58,2.93-1.79,5.85-3.54,8.93-5.11C669.81,200.94,671.09,202.38,670.1,203.32Zm6.22-2.89a138.47,138.47,0,0,1-11.16,12.41c-3.74,3.54-8.52,5.87-12.06,9.53l.08,0c-1.13,1.12-.49,3.41,1.44,3.08,5.22-.9,10.24-5,14.31-8.29a44.94,44.94,0,0,0,11.69-13.8A2.62,2.62,0,0,0,676.32,200.43Zm58.12,18c-1.93-4.17-4-6.61-8.16-8.41-.7-.3-1.37.57-1.19,1.23.92,3.38,2.23,6.52,3.17,9.88,1,3.51.91,7.13,1.82,10.66a3.37,3.37,0,0,0,6.51,0C737.77,227.13,736.43,222.76,734.44,218.46Zm10.89.07a20.82,20.82,0,0,0-4.07-4.05c-.24-.18-.54.12-.48.37a21.85,21.85,0,0,0,2.22,5.54c1,1.72,1.71,3.49,3.28,4.67,1.07.81,2.41-.52,2.12-1.69C747.93,221.48,746.48,220,745.33,218.53Zm11.93-17a1,1,0,0,0-1.51,1.2,46.65,46.65,0,0,1,4.81,15.58,35.64,35.64,0,0,0-2.91-5.62,21.74,21.74,0,0,0-9.32-8.25.83.83,0,0,0-1,1.31,47.85,47.85,0,0,1,5.86,9.62,23.9,23.9,0,0,1,1.6,5.45,47.37,47.37,0,0,0-6.1-8.89c-.69-.83-1.77.35-1.14,1.17a46.91,46.91,0,0,1,4.21,6.65c1.1,2.14,1.75,4.53,2.93,6.61a.89.89,0,0,0,1.57,0c1.33,2.84,5.15,2.12,5.51-1.12a11.43,11.43,0,0,0-.1-2.85c1.43,1.54,4.31,1.13,4.37-1.65C766.25,213,762.8,206.58,757.26,201.56Z"/><path class="cls-8" d="M669.63,224.56l31.27,2.65A81.13,81.13,0,0,0,669.63,224.56Z"/><path class="cls-8" d="M674.07,232.6l15.26,1.21A43.13,43.13,0,0,0,674.07,232.6Z"/><path class="cls-8" d="M641.92,280l14.43-11.36A34.84,34.84,0,0,0,642,278.36C641.56,278.87,641.26,279.89,641.92,280Z"/><path class="cls-8" d="M696.28,271l12.85,19A42.34,42.34,0,0,0,696.28,271Z"/><path class="cls-17" d="M543.09,427.81l.54,151s64.91,19.42,92,14.31,47.53-9.71,48-11.25-17.06-163.34-19.3-172.94C662.5,400.86,543.09,427.81,543.09,427.81Z"/><path class="cls-19" d="M586.71,768.25c1.08,27.84,6.48,115.11,10.2,150.44l20.71.25s3.12-62.59,5.83-141C609,775.65,596.52,769.17,586.71,768.25Z"/><path class="cls-19" d="M656.47,773c1,28.55-4,107.92-7,148.25l-21.44-.94s-.71-65.57-3.22-143.56C638.24,774.35,647.35,773.88,656.47,773Z"/><path class="cls-20" d="M650,916.88s21,22.4,17.87,23.82-25.21,1.24-30.65,1.48-12.08.19-12.32-2.6c-.06-.74,2.52-25.31,3.36-23.79C630,918.88,649.7,920,650,916.88Z"/><path class="cls-20" d="M597.1,917.08s-24.68,22.2-21.3,23.62,27.13,1.24,33,1.48,13,.18,13.26-2.6c.07-.74-2.78-24.58-4.62-23.69C608.59,920.16,597.1,917.08,597.1,917.08Z"/><path class="cls-19" d="M582.75,527.1c-4.38-5-25.65,5.34-36,28.49-16.94,37.78-16.76,57.92-15.58,72.55,2.92,36.27,15.26,74.21,16,75.39,2.65,4.4,12.12,3,14,2.71,6.92-1.07-8.5-77.17-8.43-83.2.24-21.43,8.05-34.73,22-61.8C581.75,547.44,588,533.13,582.75,527.1Z"/><path class="cls-19" d="M632.33,523.42c4.38-5,25.66,5.34,36,28.49,16.94,37.78,16.76,57.92,15.59,72.55-2.93,36.27-15.26,74.21-16,75.39-2.65,4.41-12.12,3-14,2.71-6.91-1.07,8.51-77.17,8.44-83.2-.24-21.43-8.05-34.73-22-61.8C633.33,543.76,627.08,529.45,632.33,523.42Z"/><path class="cls-21" d="M687.34,770.71c0,7.77-1.23,12.85-3.73,14.38-11.28,6.84-101,44.27-137.23-6-2-40.38,7.47-109.78,23.16-160.61,5.41-49-1.76-52-2.62-87.37,8-6.57,22.11-10.19,36.49-11.39,20.92-1.68,42.43,1.83,46.36,9,0,0-4,46.65,2.31,90.21C672.33,675.09,687.64,741.69,687.34,770.71Z"/><path class="cls-22" d="M687.34,770.71c0,7.77-1.23,12.85-3.73,14.38-11.28,6.84-101,44.27-137.23-6-2-40.38,7.47-109.78,23.16-160.61,5.41-49-1.76-52-2.62-87.37,8-6.57,22.11-10.19,36.49-11.39a8,8,0,0,1-4.82,8A28.46,28.46,0,0,0,582,548.51c-1.67,9,1,18,2.74,26.75,1.85,9.35,1.4,18.53.63,28-1.57,18.86-8,36.72-13.63,54.76-2.69,13.33-6.61,27.15-9.12,41-1,25.81,4.52,50.8,28.09,63.69,15.54,8.51,35.82,10.53,53.15,12.06C659.18,776.05,672.81,772.58,687.34,770.71Z"/><path class="cls-10" d="M662,447.93c3.23-2.67,7.22-5.51,11.24-4.32s5.85,5.92,5.69,10.08a20.37,20.37,0,0,1-7.88,14.81A26.8,26.8,0,0,1,655,473.93Z"/><path class="cls-10" d="M550.44,455.86c-3.43-2.4-7.64-4.91-11.54-3.4s-5.36,6.37-4.86,10.5a20.31,20.31,0,0,0,9,14.13,26.84,26.84,0,0,0,16.5,4.12Z"/><path class="cls-10" d="M597.19,500.57s-5.84,25.12,5.06,29.23,16.66-.52,18.94-4.76,1.73-20.41-.63-23.9S597.19,500.57,597.19,500.57Z"/><path class="cls-19" d="M600.48,514.79c40.25.52,62.33-20.67,62.8-56.69.14-11.19.35-25.87.35-25.87-14.7-27.31-88.22-30.56-113.11,12.29,0,0-.22,6-.6,16.61C548.57,499.49,573.7,514.44,600.48,514.79Z"/><path class="cls-10" d="M653.4,492.61c-10.19,14.56-28.12,22.51-52.93,22.19-26.76-.37-51.91-15.33-50.54-53.66.37-10.61.6-16.64.6-16.64,1.51-.36,3-.77,4.42-1.17-.13,2.85-.29,7-.45,12.27-1.38,38.33,22.81,55.33,49.57,55.66C625.52,511.54,642.8,503.62,653.4,492.61Z"/><path class="cls-17" d="M553.35,463.18c-1.52-.74-12.08-16.46-12.35-34.05-.39-24.85,9.84-55.55,57.14-61.11,83.14-9.78,69.1,79.19,65.3,88.65-.1.23-.59-15.59-5.24-17.84-6.62,2.87-27.08,1.94-33.08,1.55-3.63-4.37-2.47-12-2.47-12s-4.41,8.21-2.3,12.12c-7.32.88-20.65.64-28.64,1.63-4-2.78-2.92-13.18-2.92-13.18a16.07,16.07,0,0,0-3.21,14c-13.1,1.52-25.08,2.6-32.1,2.17C551.39,452.25,553.35,463.18,553.35,463.18Z"/><path class="cls-12" d="M581.12,468.73h0c-3.47.33-6.52-1.71-6.79-4.54l-.35-3.63c-.27-2.83,2.35-5.42,5.81-5.75h0c3.47-.33,6.53,1.72,6.8,4.55l.34,3.63C587.2,465.82,584.59,468.4,581.12,468.73Z"/><path class="cls-12" d="M635.05,464.83h0c-3.52.34-6.62-1.7-6.89-4.53l-.34-3.63c-.27-2.83,2.39-5.42,5.9-5.76h0c3.52-.33,6.62,1.71,6.89,4.54l.34,3.63C641.22,461.91,638.57,464.5,635.05,464.83Z"/><path class="cls-13" d="M627.72,479.07a16.91,16.91,0,0,1-33.66,3.21Z"/><path class="cls-23" d="M589.42,482.58c.36,7-4.13,10.77-11.14,11.13s-12.54-4-12.91-11,5.29-11.7,12.3-12.06S589.06,475.57,589.42,482.58Z"/><path class="cls-23" d="M657.37,475.33c.37,7-4.12,10.76-11.14,11.13s-12.54-4-12.9-11,5.29-11.69,12.3-12.05S657,468.32,657.37,475.33Z"/><path class="cls-24" d="M561.45,417.43a8.35,8.35,0,0,1-1.52,2.61,1.36,1.36,0,0,1-2,.23,1.39,1.39,0,0,1-1.45.64,4.53,4.53,0,0,1-3.57-3.06c0,.53,0,1.06.08,1.6a2.15,2.15,0,0,1-2.44,2.26,48.41,48.41,0,0,0,.21,5.25c.32,3.07-3.6,3.37-4.62,1a26,26,0,0,1,11.19-32.72,1,1,0,0,1,1.29,1.61,37.43,37.43,0,0,0-4.78,8.38,32.34,32.34,0,0,0-.81,4.42,17.63,17.63,0,0,1,2.19-5.18c.45-.66,1.12-.28,1.34.3l.27-.44c1.15-1.86,3.92-1.56,4.09.85.2,2.77.29,5.55.41,8.33A14.58,14.58,0,0,1,561.45,417.43Zm4.84-6.68a64.89,64.89,0,0,1-.48-7.64,1.18,1.18,0,0,0-2.34-.14c-.47,5.1-1.06,11.25.86,16a1.53,1.53,0,0,0,3-.66A64.29,64.29,0,0,0,566.29,410.75Zm20.19-1.31-3-9.87a.68.68,0,0,0-1.32.3l1.29,10.24c.37,2.9.35,5.89,2,8.3a1.35,1.35,0,0,0,2.46-.53C588.47,414.86,587.33,412.26,586.48,409.44Zm5.93,0a49.6,49.6,0,0,0-3.16-10.33A1.2,1.2,0,0,0,587,400a47,47,0,0,1,2.24,10c.31,2.87-.14,6,1,8.62a1.18,1.18,0,0,0,2.18.14C593.7,415.73,593,412.51,592.41,409.45Zm4.34.1a4.85,4.85,0,0,1-.2,3.49,1.51,1.51,0,0,1-2.38.5c-1.39-1.41-1.16-3.24-1.39-5.19a67.87,67.87,0,0,0-1.22-7,1.16,1.16,0,0,1,2-1.11,1.12,1.12,0,0,1,.86-.65l1.16-.49a1.42,1.42,0,0,1,2.18.77,35.74,35.74,0,0,1,.72,8.53A1.18,1.18,0,0,1,596.75,409.55Zm37.55,8c.61-5.3-1-10.38-2.69-15.29-.58-1.67-1.14-4.74-2.46-5.84-1.56-1.3-3-.26-4.63.51a1,1,0,0,0-.51,1c-.07-.11-.13-.23-.2-.33-.73-1.06-2.73-.23-2.12,1.12a34.57,34.57,0,0,1,2.73,9.6c-.14-.43-.28-.89-.41-1.28a33.7,33.7,0,0,0-4.84-9.27,1.4,1.4,0,0,0-2.28,1.61,30.58,30.58,0,0,1,3.47,9,19.62,19.62,0,0,1,.32,2.68,26.22,26.22,0,0,0-5.82-11.74c-.54-.67-1.22-.22-1.49.42a.29.29,0,0,1,0-.09,1.53,1.53,0,1,0-3,.25c-.07,4.73,0,9.2,1.46,13.66a2,2,0,0,0,4-.88c-.43-3.58-1.22-7-1.9-10.54,1.64,4.27,2.08,8.81,2.69,13.4.4,3,4.2,2.62,4.39-.36a2.43,2.43,0,0,0,0-.27,12.06,12.06,0,0,0,.5,2.57c.7,2.14,3.29,1.65,3.91-.3a8.89,8.89,0,0,0,.13-.88,14.67,14.67,0,0,0,1.92,4.57,2.57,2.57,0,0,0,4.68-1.69A1.79,1.79,0,0,0,634.3,417.54Zm12.49-13.31a26.37,26.37,0,0,0-8.43-10.84c-1.54-1.16-3.58,1.09-2.07,2.43a26.31,26.31,0,0,1,2.4,2.44,2.17,2.17,0,0,0-2.5.77c-.63-1.13-1.27-2.27-1.92-3.4-.51-.91-1.72-.15-1.51.8a112.41,112.41,0,0,0,2.73,10.92c.89,2.71,1.28,6.81,4,8a1.7,1.7,0,0,0,2.28-.81,5.62,5.62,0,0,0,.17-3.41,3,3,0,0,0,.54-1.58c.24-3.54-1.23-6.7-2.66-9.79a22.94,22.94,0,0,1,3.35,6.42c1.2,3.63.42,7.87,1.83,11.27a1.68,1.68,0,0,0,3.11.21C650.33,413.83,648.35,407.86,646.79,404.23Zm3.29-14.68a1.34,1.34,0,0,0-2,1.18,32.11,32.11,0,0,0-6.07-4.67c-1.54-.9-2.76,1.42-1.42,2.49,8.35,6.66,10.65,16.55,11.71,27.16.26,2.56,4,3.61,4.65.58.16-.75.17-1.49.26-2.24a2.57,2.57,0,0,0,4.12-.62C665.6,403.93,657.24,394,650.08,389.55Zm-71.55,24a29.48,29.48,0,0,0-.6-5.41c-.49-1.82-1.15-3.61-1.73-5.4-.32-1-1.58-.6-1.65.37-.12,1.8-.31,3.61-.36,5.42a29.15,29.15,0,0,0,.63,5.33C575.2,416.3,578.74,416.16,578.53,413.57Z"/><path class="cls-10" d="M427.1,581.48s12.75,5.09,28.55-1c0,0,5.61,27.53-10.19,39.25S422,629.91,423,624.81s5.1-11.73,5.1-14.78-2.55-7.65-7.64-.51S421,592.18,427.1,581.48Z"/><path class="cls-10" d="M428.49,671.86c-1.26,42.07-7.54,173.93-11.86,227.31l-24.07.38s-3.63-94.57-6.78-213.06C402.55,683,417.09,673.24,428.49,671.86Z"/><path class="cls-10" d="M335.29,679C334,722.09,340.32,842,344,903l26.82-1.42s.89-99.07,4-216.91C358.09,681.08,346.69,680.37,335.29,679Z"/><path class="cls-17" d="M377.08,484.85C478.64,469,462.86,278,416.46,237.06c-43.46-38.29-86.16-18.59-104.79-1.92C262.34,279.3,261.16,502.93,377.08,484.85Z"/><path class="cls-4" d="M343.33,896.43S317,930.27,321,932.42s31.53,1.88,38.33,2.24,15.11.28,15.41-3.93c.08-1.13-3.14-38.25-4.19-35.94C368.4,899.46,343.75,901.15,343.33,896.43Z"/><path class="cls-4" d="M416.41,896.73s28.7,33.54,24.76,35.69-31.54,1.88-38.34,2.24-15.11.28-15.41-3.93c-.08-1.13,3.23-37.13,5.37-35.79C403.05,901.38,416.41,896.73,416.41,896.73Z"/><path class="cls-13" d="M442.32,584.79c2.95,22.63,7.8,47.73,9.33,74.4,0,.15,1.27,11.95,1.27,12.1,0,1,.12,1.91.15,2.84,1.61,30.93,0,56.55-5.3,58.38-.41.15-.75.26-1.16.38-53.52,18.52-98.87,11.54-125.5,3.62l-.86-.23c-1.38-.44-2.69-.82-4-1.23-.3-.11-.56-.18-.82-.3a129.9,129.9,0,0,1-19.68-8.14c0-.37-.08-.9-.11-1.49,0-.83,0-1.76-.12-2.84-.37-21.14,2.39-93,4.86-123.63a9.82,9.82,0,0,0,.07-1.2c.27-2.35.68-3.44.34-5-11-53.23-6.76-156.06,17-190.57,9.41-13.74,23.34-23.68,43.36-26.37,20.25-2.73,54.68-1.68,67.38,18.15,11.73,18.34,18.08,44.67,21.67,72.13,4.37,33.65,4.55,68.91,5.38,93,.29,9,.67,16.51,1.41,21.71C457.22,582.17,442.09,583,442.32,584.79Z"/><path class="cls-10" d="M391.26,364.47s6,24.63-4.68,28.78-16.38-.34-18.67-4.49-1.91-20,.38-23.5S391.26,364.47,391.26,364.47Z"/><path class="cls-10" d="M317.24,310.28c-3.38-2.36-7.52-4.82-11.36-3.33s-5.26,6.27-4.77,10.32A20,20,0,0,0,310,331.16a26.38,26.38,0,0,0,16.22,4Z"/><path class="cls-19" d="M416.73,355.79s0,0-.07,0a44.57,44.57,0,0,1-3.63,2.72c-.52.38-1,.71-1.6,1.05s-1.24.75-1.87,1.12-1.27.71-1.94,1c-1.2.63-2.43,1.19-3.7,1.71-.67.3-1.38.6-2.13.86a4.62,4.62,0,0,1-.67.26,68.24,68.24,0,0,1-12.81,3.33h-.08c-1.53.26-3.06.48-4.63.63-40.79,4.22-64.58-13.22-67.34-46.39-.9-10.31-2-23.83-2-23.83a5.36,5.36,0,0,0,1.57-.15c2.31-.56,5.19-2.5,8-5.56,5.53-6,14.36-17.15,14.62-29.74,13.24-12.38,23.87-.29,31.6,14.95,12.11,23.72,49.55,22.64,59.78,21.29,0,0,.6,5.49,1.68,15.24C433.54,333.49,427.26,347,416.73,355.79Z"/><path class="cls-10" d="M416.66,355.83a44.57,44.57,0,0,1-3.63,2.72c-.52.38-1,.71-1.6,1.05s-1.24.75-1.87,1.12-1.27.71-1.94,1c-1.2.63-2.43,1.19-3.7,1.71-.67.3-1.38.6-2.13.86a4.62,4.62,0,0,1-.67.26,72.34,72.34,0,0,1-12.81,3.33h-.08c-1.53.26-3.06.48-4.63.63-40.79,4.22-64.58-13.22-67.34-46.39-.9-10.31-2-23.83-2-23.83a5.36,5.36,0,0,0,1.57-.15c2.31-.56,5.19-2.5,8-5.56-.67,10-1.23,19.65-.78,24.8,2.8,33.17,26.59,50.61,67.38,46.39A68,68,0,0,0,416.66,355.83Z"/><path class="cls-17" d="M409.15,315.68h0a5.3,5.3,0,0,0,5.05-5.5l-.16-3.72a5.29,5.29,0,0,0-5.49-5h0a5.3,5.3,0,0,0-5.05,5.5l.16,3.72A5.29,5.29,0,0,0,409.15,315.68Z"/><path class="cls-17" d="M353.16,318.82h0a5.28,5.28,0,0,0,5-5.5l-.15-3.72a5.3,5.3,0,0,0-5.5-5.05h0a5.3,5.3,0,0,0-5.05,5.5l.16,3.72A5.3,5.3,0,0,0,353.16,318.82Z"/><path class="cls-13" d="M364.3,334.58a17.27,17.27,0,0,0,34.47-2.14Z"/><path class="cls-25" d="M447.77,732.51c-.41.15-.75.26-1.16.38-53.71,18-98.94,11.28-125.5,3.62l-.86-.23c-1.38-.44-2.69-.82-4-1.23-.3-.11-.56-.18-.82-.3a122.52,122.52,0,0,1-19.72-7.92c0-.44-.07-1-.07-1.71a20,20,0,0,1-.12-2.84c-.37-21.14,2.39-93,4.86-123.63a9.82,9.82,0,0,0,.07-1.2c8-1.94,32.5,1.61,29.85-3.66-2.28-4.59-6.69-85.53-.15-121.28.82-4.41,8.36-37.2,11.17-40.79a.29.29,0,0,1,.52.08c1.08,4.26-8.22,38.73-7.51,46.28,2.21,24.24-3.85,33.84-4.41,43.25a1.16,1.16,0,0,1-.22.63c-1,25.55-.3,53.08,5.12,70,12.32,38.47,9.41,36.94,1,35.56,2.65,8.55,4.07,18.53-12.51,17-13.82-1.35-18.86-14.23-18.82-8.26.07,10.31-.12,33,7.39,41.87,31.82,37.65,120.79,45.27,136.33,11.51a65.7,65.7,0,0,0,4.78-15.43C454.68,705.06,453.07,730.68,447.77,732.51Z"/><path class="cls-25" d="M442.3,584.8c-.79.08-3.52-26.78-7.66-40.85-13.8-46.92-8.51-74.28-9.18-87.87-.6-12.33-4.71-25.71-.41-24.58,6.39,1.69,2.44,43.27,9.42,80.25,5.89,31.15,15.71,58.91,14.22,71C446.93,583.43,444.42,584,442.3,584.8Z"/><path class="cls-10" d="M329.48,593.6s-12.75,5.09-28.55-1c0,0-5.61,27.53,10.19,39.25s23.46,10.2,22.44,5.1-5.1-11.73-5.1-14.79,2.55-7.64,7.65-.51S335.6,604.3,329.48,593.6Z"/><path class="cls-24" d="M316.51,265.8a8.21,8.21,0,0,1-1.66,2.61,1.58,1.58,0,0,1-2.15.23,1.6,1.6,0,0,1-1.6.64,4.84,4.84,0,0,1-3.89-3.06c0,.53,0,1.06.09,1.6a2.29,2.29,0,0,1-2.67,2.26,41.84,41.84,0,0,0,.23,5.25c.34,3.07-3.94,3.37-5.05,1-5.76-12.16-.08-26.41,12.23-32.71,1.11-.57,2.25.6,1.41,1.6a36.31,36.31,0,0,0-5.22,8.38,29.87,29.87,0,0,0-.9,4.42,17.26,17.26,0,0,1,2.4-5.18c.5-.66,1.23-.28,1.47.3.1-.15.2-.29.29-.44,1.26-1.86,4.29-1.56,4.48.85.21,2.77.31,5.55.45,8.33A13.44,13.44,0,0,1,316.51,265.8Zm5.3-6.68a59.08,59.08,0,0,1-.53-7.64c0-1.39-2.42-1.57-2.56-.14-.51,5.1-1.15,11.25.94,16a1.69,1.69,0,0,0,3.25-.66C322.88,264.1,322.16,261.67,321.81,259.12Zm74.36,6.79c.67-5.3-1.09-10.38-2.94-15.29-.63-1.67-1.24-4.74-2.69-5.84-1.7-1.3-3.31-.26-5.05.51a1,1,0,0,0-.57,1c-.08-.11-.13-.23-.21-.33-.81-1.06-3-.23-2.33,1.12a32,32,0,0,1,3,9.6c-.15-.43-.3-.89-.44-1.28a32.75,32.75,0,0,0-5.3-9.27c-1.14-1.43-3.48,0-2.49,1.61a29,29,0,0,1,3.79,9,16.94,16.94,0,0,1,.35,2.68c-.83-4.39-3.36-8.34-6.37-11.74-.59-.67-1.32-.22-1.63.42a.29.29,0,0,0,0-.09,1.67,1.67,0,0,0-3.32.25c-.08,4.73,0,9.2,1.59,13.66.78,2.21,4.66,1.61,4.33-.88-.46-3.58-1.33-7-2.07-10.54,1.8,4.27,2.28,8.81,2.94,13.4.44,3,4.59,2.62,4.81-.36a2.43,2.43,0,0,1,0-.27,11,11,0,0,0,.54,2.57c.77,2.14,3.6,1.66,4.28-.3a8.48,8.48,0,0,0,.13-.88,14.15,14.15,0,0,0,2.11,4.57c1.52,2.15,5.25,1,5.12-1.69A1.94,1.94,0,0,0,396.17,265.91Zm13.67-13.31a27,27,0,0,0-9.22-10.84c-1.69-1.16-3.92,1.09-2.26,2.43a26.32,26.32,0,0,1,2.61,2.44,2.48,2.48,0,0,0-2.72.77l-2.1-3.4c-.57-.91-1.89-.15-1.66.8a105.48,105.48,0,0,0,3,10.92c1,2.71,1.41,6.81,4.4,8a1.94,1.94,0,0,0,2.5-.81,5.21,5.21,0,0,0,.18-3.41,2.91,2.91,0,0,0,.6-1.58c.25-3.54-1.35-6.7-2.92-9.79a22.69,22.69,0,0,1,3.67,6.42c1.31,3.63.46,7.87,2,11.27a1.9,1.9,0,0,0,3.4.21C413.7,262.2,411.54,256.23,409.84,252.6Zm3.59-14.68a1.48,1.48,0,0,0-2.18,1.18,34.83,34.83,0,0,0-6.63-4.67,1.47,1.47,0,0,0-1.56,2.49c9.13,6.66,11.65,16.55,12.81,27.16.28,2.56,4.36,3.61,5.09.58.17-.75.18-1.49.28-2.24,1.3,1.09,3.65,1.1,4.5-.62C430.4,252.3,421.27,242.34,413.43,237.92Z"/></g></g></svg>