<svg xmlns="http://www.w3.org/2000/svg" xmlns:xlink="http://www.w3.org/1999/xlink" viewBox="0 0 1916.28 787.68"><defs><style>.cls-1{fill:none;}.cls-2{isolation:isolate;}.cls-3{fill:url(#linear-gradient);}.cls-4{fill:url(#linear-gradient-2);}.cls-5{opacity:0.64;fill:url(#linear-gradient-4);}.cls-6{clip-path:url(#clip-path);}.cls-7,.cls-9{fill:#e6e7e8;}.cls-11,.cls-20,.cls-7{mix-blend-mode:multiply;}.cls-8{fill:#102946;}.cls-10,.cls-11,.cls-20{fill:#f6ccb8;}.cls-12{fill:#061733;}.cls-13{fill:#fff;}.cls-14{fill:#dcc2a7;}.cls-15{fill:#f1f2f2;}.cls-16{fill:#a7a9ac;}.cls-17{fill:#212f5c;}.cls-18{fill:#859fd8;}.cls-19{fill:#658acd;}.cls-20{opacity:0.8;}.cls-21{fill:#3c2417;}.cls-22{fill:#f05d44;}.cls-23{fill:#11284a;}.cls-24{fill:#42404d;}</style><linearGradient id="linear-gradient" x1="958.14" x2="958.14" y2="525.23" gradientUnits="userSpaceOnUse"><stop offset="0" stop-color="#9591ff"/><stop offset="1" stop-color="#d197fe"/></linearGradient><linearGradient id="linear-gradient-2" x1="342.35" y1="238.74" x2="342.35" y2="525.23" xlink:href="#linear-gradient"/><linearGradient id="linear-gradient-4" x1="1561.52" y1="156.62" x2="1561.52" y2="461.4" gradientTransform="translate(616.05 -913.29) rotate(37.98)" xlink:href="#linear-gradient"/><clipPath id="clip-path" transform="translate(-2.77 -0.95)"><rect class="cls-1" x="1569" y="104.95" width="259.84" height="421"/></clipPath></defs><title>Dr.tech3dsubscribe</title><g class="cls-2"><g id="Layer_3" data-name="Layer 3"><polygon class="cls-3" points="1916.28 0 0 0 0 238.74 684.7 525.23 1916.28 525.23 1916.28 0"/><polygon class="cls-4" points="0 525.23 684.7 525.23 0 238.74 0 525.23"/><polygon class="cls-4" points="0 525.23 684.7 525.23 0 238.74 0 525.23"/><ellipse class="cls-5" cx="1656.73" cy="291.21" rx="153.29" ry="151.84"/><g class="cls-6"><g id="doctor"><ellipse class="cls-7" cx="1662.33" cy="767.41" rx="81.08" ry="20.27"/><path class="cls-8" d="M1721.49,272c-.06.37-.14.68-.22,1-.81,3.47-1.72,6.69-2.7,9.64-1.7,5.07-3.52,9.27-5.82,12.42a17,17,0,0,1-3.6,3.72,15.5,15.5,0,0,1-9.67,2.94h-59.35a15.45,15.45,0,0,1-10-3.19,17.75,17.75,0,0,1-3.26-3.47c-2.31-3.15-4.12-7.35-5.82-12.42q-1.49-4.43-2.7-9.64c-.08-.34-.16-.65-.23-1-9.3-40.95-6.53-113.54,14.56-135.41,8.65-9,19.35-16.86,37.13-16.86,14.1,0,23.75,5,31.45,11.5a72.31,72.31,0,0,1,5.69,5.36A29,29,0,0,1,1709,139C1728.21,163.4,1730.48,232.48,1721.49,272Z" transform="translate(-2.77 -0.95)"/><polygon class="cls-9" points="1649.32 262.37 1690.59 262.37 1693.84 280.98 1646.08 280.98 1649.32 262.37"/><polygon class="cls-10" points="1686.17 264.87 1686.17 244.19 1653.74 244.19 1653.74 264.87 1645.63 265.5 1653.74 317.78 1686.17 317.78 1694.28 265.5 1686.17 264.87"/><polygon class="cls-11" points="1653.74 244.32 1653.74 253.46 1686.17 264.43 1686.17 244.32 1653.74 244.32"/><path class="cls-10" d="M1719.75,419h-94.67c-21.72,37.38,1.91,87.95,13,206.5,2,16.86-3.79,68.21-5.36,107l-3.28,32h21.08l3.14-32,11.27-107.47,5.71-142.83h1.78l1.78-11.36,4,250.31-.1,43.32h21.08l0-32C1698.82,519.11,1746.73,465.42,1719.75,419Z" transform="translate(-2.77 -0.95)"/><path class="cls-12" d="M1678.15,746.37s2.38,13.85,10.47,13.85,10.46-13.85,10.46-13.85,2.19,8,2.19,13.39c0,9.88-3.92,15.43-12.65,15.43S1676,769.64,1676,759.76C1676,754.42,1678.15,746.37,1678.15,746.37Z" transform="translate(-2.77 -0.95)"/><path class="cls-12" d="M1651.69,747.34s-3.57,13.59-11.63,12.88-9.22-14.7-9.22-14.7-2.88,7.83-3.34,13.14c-.86,9.84,2.55,15.72,11.25,16.48s13.09-4.44,14-14.28C1653.16,755.55,1651.69,747.34,1651.69,747.34Z" transform="translate(-2.77 -0.95)"/><polygon class="cls-13" points="1733.64 431.19 1759.51 426.59 1735.02 289.29 1705.89 296.55 1733.64 431.19"/><rect class="cls-14" x="1655.41" y="392.64" width="119.53" height="91.53" transform="translate(152.47 1274.5) rotate(-42.56)"/><rect class="cls-15" x="1661.16" y="396.76" width="112.89" height="78.81" transform="translate(154.63 1275.56) rotate(-42.56)"/><path class="cls-16" d="M1748,385.82l-4.15,3.81a3.3,3.3,0,0,0-.2,4.64l17.91,19.5a3.29,3.29,0,0,0,4.64.2l4.15-3.81,3.87-3.55-6-6.58a7.87,7.87,0,0,0-10.27-11.19l-6-6.57Zm17.29,8.33a1.31,1.31,0,1,1,.08-1.85A1.3,1.3,0,0,1,1765.31,394.15Zm-16.4-7.36,20.57,22.4-4.15,3.81a2,2,0,0,1-2.79-.12l-17.9-19.5a2,2,0,0,1,.12-2.78Z" transform="translate(-2.77 -0.95)"/><path class="cls-10" d="M1763.9,458c-1.52-5.72-7.91-9-14.27-7.28s-10.28,7.71-8.75,13.42L1744,476C1761.38,473,1763.9,458,1763.9,458Z" transform="translate(-2.77 -0.95)"/><path class="cls-17" d="M1624,410.65h97.46s21.56,59.82-1.11,160.22a1.83,1.83,0,0,1-1.72,1.1h-91.8a1.82,1.82,0,0,1-1.72-1.1C1602.44,470.47,1624,410.65,1624,410.65Z" transform="translate(-2.77 -0.95)"/><path class="cls-18" d="M1650.66,268.14l1.26,4.74c2.18,6.25,7.52,7.46,20.81,7.46,15,0,21-4,22.74-9.64l.68-2.56c27.61,10.38,19.14,96.84,19.14,96.84l.17,47.5H1629l1.15-47.5S1623.05,278.52,1650.66,268.14Z" transform="translate(-2.77 -0.95)"/><circle class="cls-12" cx="1669.96" cy="302.12" r="3.24"/><circle class="cls-12" cx="1669.96" cy="334.21" r="3.24"/><circle class="cls-12" cx="1669.96" cy="366.3" r="3.24"/><circle class="cls-12" cx="1669.96" cy="398.38" r="3.24"/><path class="cls-19" d="M1672.73,280.34l10.44,11L1701,270l-11.14-5.55-4.19,3.88Z" transform="translate(-2.77 -0.95)"/><polygon class="cls-19" points="1652.8 263.55 1669.96 279.39 1659.52 290.39 1641.67 269.08 1652.8 263.55"/><path class="cls-13" d="M1688.3,521.14l4.22,19.7h45.64c-1.78-27.28-18-174.19-18-174.19,10-28.88,16.67-57.1,17.87-72.58.51-6.61-4.1-14-10.29-16.39l-32.38-11.33-7.06,92.75Z" transform="translate(-2.77 -0.95)"/><path class="cls-13" d="M1657.24,521.14l-4.22,19.7h-45.64c1.78-27.28,18-174.19,18-174.19-10-28.88-13.42-57.1-14.63-72.58-.51-6.61,4.11-14,10.29-16.39l29.13-11.33,7.07,92.75Z" transform="translate(-2.77 -0.95)"/><polygon class="cls-13" points="1688.77 478.92 1724.94 488.61 1724.94 447.89 1688.77 438.2 1688.77 478.92"/><rect class="cls-7" x="1707.58" y="426.83" width="3.24" height="37.45" transform="translate(833.68 1980.25) rotate(-75)"/><polygon class="cls-9" points="1704.81 269.68 1704.26 285.81 1696.2 292.44 1702.47 301.02 1685.53 358.15 1690.6 262.37 1704.81 269.68"/><polygon class="cls-9" points="1635.2 269.68 1635.75 285.81 1643.81 292.44 1637.53 301.02 1654.47 358.15 1649.41 262.37 1635.2 269.68"/><path class="cls-10" d="M1636.35,429l2.77,6.54a29.46,29.46,0,0,1,12.77,13.89,3.65,3.65,0,0,1-1.93,4.8,3.6,3.6,0,0,1-2.93-.05l1.33,3.13a10.94,10.94,0,1,1-20.15,8.55l-12-28.31Z" transform="translate(-2.77 -0.95)"/><path class="cls-7" d="M1622,397.78l17.11,40.33,6-2.53-21.64-51C1623,388.49,1622.5,392.93,1622,397.78Z" transform="translate(-2.77 -0.95)"/><path class="cls-13" d="M1617.89,447.11l24.18-10.27-30.43-71.71,12.45-29L1611.62,288,1585.19,361a13.13,13.13,0,0,0,.26,9.61Z" transform="translate(-2.77 -0.95)"/><polygon class="cls-13" points="1651.16 478.92 1614.99 488.61 1614.99 447.89 1651.16 438.2 1651.16 478.92"/><rect class="cls-7" x="1617.54" y="443.94" width="37.45" height="3.24" transform="translate(-62.33 437.73) rotate(-15)"/><path class="cls-10" d="M1709.87,189.27V172.41c0-17.92-20.73-40.54-37.14-40.54s-37.15,22.62-37.15,40.54v16.86a8.19,8.19,0,0,0-8.26,8.11v8.43a8.19,8.19,0,0,0,8.26,8.11c0,17.91,20.73,41.19,37.15,41.19s37.14-23.28,37.14-41.19a8.19,8.19,0,0,0,8.26-8.11v-8.43A8.19,8.19,0,0,0,1709.87,189.27Z" transform="translate(-2.77 -0.95)"/><path class="cls-20" d="M1672.73,225.11v30c16.41,0,37.14-23.28,37.14-41.19a8.19,8.19,0,0,0,8.26-8.11v-8.43a8.19,8.19,0,0,0-8.26-8.11V172.41c0-17.92-20.73-40.54-37.14-40.54v65.67a110,110,0,0,0-8.26,26Z" transform="translate(-2.77 -0.95)"/><path class="cls-11" d="M1658.86,200a6.4,6.4,0,1,1-6.63-6.17A6.42,6.42,0,0,1,1658.86,200Z" transform="translate(-2.77 -0.95)"/><path class="cls-21" d="M1658.86,198.39a6.4,6.4,0,1,1-6.63-6.17A6.42,6.42,0,0,1,1658.86,198.39Z" transform="translate(-2.77 -0.95)"/><path class="cls-13" d="M1656.23,196.56a1.6,1.6,0,1,1-1.66-1.54A1.6,1.6,0,0,1,1656.23,196.56Z" transform="translate(-2.77 -0.95)"/><path class="cls-21" d="M1660.24,193.5a9.34,9.34,0,0,0-7.53-5.18c-2-.22-5.86.08-9.15,4.24a1.92,1.92,0,0,1-.48,0,4.73,4.73,0,0,1-1.37-.36,6.4,6.4,0,0,1-1.85-1.26.21.21,0,0,0-.23,0,.2.2,0,0,0-.09.27s.13.28.37.68a6.8,6.8,0,0,0,1.09,1.38,6.52,6.52,0,0,0,1.51,1.08,5.24,5.24,0,0,0,.61.26l.28.08a1,1,0,0,0,1-.56c2.15-3,5-4.49,8.1-4.16a7.77,7.77,0,0,1,6.21,4.21.81.81,0,1,0,1.49-.64Z" transform="translate(-2.77 -0.95)"/><path class="cls-11" d="M1699.4,200a6.41,6.41,0,1,1-6.63-6.17A6.42,6.42,0,0,1,1699.4,200Z" transform="translate(-2.77 -0.95)"/><path class="cls-21" d="M1699.4,198.39a6.41,6.41,0,1,1-6.63-6.17A6.42,6.42,0,0,1,1699.4,198.39Z" transform="translate(-2.77 -0.95)"/><path class="cls-13" d="M1696.77,196.56a1.6,1.6,0,1,1-1.66-1.54A1.6,1.6,0,0,1,1696.77,196.56Z" transform="translate(-2.77 -0.95)"/><path class="cls-21" d="M1685.21,193.5a9.34,9.34,0,0,1,7.53-5.18c2-.22,5.86.08,9.15,4.24a1.92,1.92,0,0,0,.48,0,4.65,4.65,0,0,0,1.37-.36,6.4,6.4,0,0,0,1.85-1.26.21.21,0,0,1,.23,0,.2.2,0,0,1,.09.27,5.57,5.57,0,0,1-.37.68,6.44,6.44,0,0,1-2.6,2.46,5.24,5.24,0,0,1-.61.26l-.28.08a1.05,1.05,0,0,1-1-.56c-2.15-3-5-4.49-8.1-4.16a7.77,7.77,0,0,0-6.21,4.21.81.81,0,1,1-1.49-.64Z" transform="translate(-2.77 -0.95)"/><path class="cls-22" d="M1685.64,231.1c0,6.37-5.81,11.53-13,11.53s-13-5.16-13-11.53Z" transform="translate(-2.77 -0.95)"/><path class="cls-13" d="M1715.26,185.57h-5.7c-3.26-2.21-9.22-2.21-14.62-2.2-9.08,0-15.16,1.79-18.09,5.29a12,12,0,0,0-8.36,0c-2.94-3.5-9-5.29-18.1-5.29-5.4,0-11.35,0-14.62,2.2h-5.7v6.17l2.47,1.36c0,9.62,4.74,20.76,17.85,20.76,10.78,0,17.45-5.85,19.85-17.38a10.77,10.77,0,0,0,.22-2.43,2.54,2.54,0,0,1,4.41,0,11.41,11.41,0,0,0,.23,2.43c2.39,11.53,9.07,17.38,19.84,17.38,13.11,0,17.8-11.14,17.86-20.76l2.46-1.36Zm-47.88,10.32c-2.1,10.13-7.66,15.05-17,15.05-14.22,0-14.94-15-14.94-18,0-4.61,10.28-5,14.94-5C1660.66,187.91,1668.34,191.57,1667.38,195.89Zm27.56,15.05c-9.33,0-14.88-4.92-17-15.05-1-4.32,6.71-8,17-8,4.66,0,14.94.42,14.94,5C1709.88,196,1709.16,210.94,1694.94,210.94Z" transform="translate(-2.77 -0.95)"/><path class="cls-23" d="M1634,250.14c-11.72-39.1-19.91-63.37-13.51-89.75,12.44-51.25,75-54.29,81.35-22.13,1.35,6.85,15.15,13.6,8,47.31-.55-.19-16.61-19.2-20.79-29C1634,156.37,1652.46,238,1634,250.14Z" transform="translate(-2.77 -0.95)"/><path class="cls-16" d="M1706.9,301.65c-.06-1.48-1.65-33.71-18-41.93v3.74c13.27,8.66,14.71,38,14.72,38.33l.07,1.62,3.24-.14Z" transform="translate(-2.77 -0.95)"/><path class="cls-16" d="M1656.5,263.41v-3.76c-26.68,13.53-15.48,83.28-15,86.34l.27,1.6,3.2-.53-.27-1.6C1644.61,344.75,1633.85,277.85,1656.5,263.41Z" transform="translate(-2.77 -0.95)"/><path class="cls-16" d="M1716.41,352.44a21.28,21.28,0,0,1-8.34-2.74c8.81-7.37,13.86-20.18,13.26-31.49s-6.75-18.11-16-18.11-15.45,6.94-16,18.11,4.44,24.12,13.25,31.49a21.28,21.28,0,0,1-8.34,2.74,1.62,1.62,0,0,0,.17,3.23h.17a24.64,24.64,0,0,0,10.79-3.91,24.68,24.68,0,0,0,10.79,3.91h.17a1.62,1.62,0,0,0,.17-3.23Zm-23.94-34.06c.25-4.52,2-15,12.81-15s12.56,10.52,12.81,15c.57,10.73-4.33,22.93-12.81,29.46C1696.8,341.31,1691.9,329.11,1692.47,318.38Z" transform="translate(-2.77 -0.95)"/><path class="cls-24" d="M1691.79,356.62a27.69,27.69,0,0,1-2.86-.15,2.43,2.43,0,0,1,.51-4.84,22.3,22.3,0,0,0,4.62,0,2.43,2.43,0,1,1,.52,4.83A25.66,25.66,0,0,1,1691.79,356.62Z" transform="translate(-2.77 -0.95)"/><path class="cls-24" d="M1718.77,356.62a25.8,25.8,0,0,1-2.79-.15,2.43,2.43,0,1,1,.52-4.83,22.3,22.3,0,0,0,4.62,0,2.43,2.43,0,0,1,.51,4.84A27.69,27.69,0,0,1,1718.77,356.62Z" transform="translate(-2.77 -0.95)"/><circle class="cls-9" cx="1640.36" cy="344.9" r="9.73"/><path class="cls-16" d="M1643.13,336.12a9.73,9.73,0,1,1-9.73,9.73,9.73,9.73,0,0,1,9.73-9.73m0-3.24a13,13,0,1,0,13,13,13,13,0,0,0-13-13Z" transform="translate(-2.77 -0.95)"/><circle class="cls-16" cx="1640.36" cy="344.9" r="6.94"/></g></g></g></g></svg>