<?xml version="1.0" encoding="utf-8"?>
<!-- Generator: Adobe Illustrator 22.0.1, SVG Export Plug-In . SVG Version: 6.00 Build 0)  -->
<svg version="1.1" id="Layer_1" xmlns="http://www.w3.org/2000/svg" xmlns:xlink="http://www.w3.org/1999/xlink" x="0px" y="0px"
	 viewBox="0 0 612 792" style="enable-background:new 0 0 612 792;" xml:space="preserve">
<style type="text/css">
	.st0{fill:#F7FCFD;stroke:#000000;stroke-miterlimit:10;}
	.st1{fill:#FFFFFF;stroke:#000000;stroke-miterlimit:10;}
	.st2{fill:#1B3B68;}
	.st3{fill:#E39546;}
	.st4{fill:#2FA0D0;}
</style>
<path class="st0" d="M357.8,521.2h-100c-9.4,0-17.1-7.7-17.1-17.1V281.8c0-9.4,7.7-17.1,17.1-17.1h100c9.4,0,17.1,7.7,17.1,17.1
	v222.2C374.9,513.5,367.2,521.2,357.8,521.2z"/>
<ellipse class="st1" cx="311.4" cy="390.4" rx="96.8" ry="109"/>
<ellipse class="st1" cx="310.8" cy="226.9" rx="67.9" ry="68.6"/>
<rect x="267.2" y="478.8" class="st1" width="44.9" height="219.2"/>
<rect x="317.2" y="477.6" class="st1" width="42.3" height="219.2"/>
<rect x="391.6" y="339.1" class="st1" width="34.6" height="219.2"/>
<rect x="192.8" y="339.1" class="st1" width="34.6" height="219.2"/>
<ellipse class="st2" cx="310.2" cy="233.3" rx="54" ry="53.2"/>
<path class="st1" d="M340.9,382.7h-48.7c-14.5,0-26.3-11.8-26.3-26.3v0c0-14.5,11.8-26.3,26.3-26.3h48.7c14.5,0,26.3,11.8,26.3,26.3
	v0C367.2,370.9,355.4,382.7,340.9,382.7z"/>
<ellipse class="st3" cx="341.6" cy="355.1" rx="15.4" ry="12.2"/>
<ellipse class="st3" cx="306.9" cy="355.1" rx="15.4" ry="12.2"/>
<circle class="st4" cx="315.3" cy="405.1" r="10.9"/>
<circle class="st4" cx="315.3" cy="438.5" r="10.9"/>
</svg>
